<svg xmlns="http://www.w3.org/2000/svg" width="150" height="72" viewBox="0 0 150 72">
  <g fill="none" fill-rule="evenodd">
    <rect width="150" height="72"/>
    <g fill="#000000" transform="translate(0 21)">
      <polygon points="42.444 18.169 42.445 18.169 42.444 18.167"/>
      <path d="M139.962369 23.5637269L139.9393 23.5214189 139.893607 23.3753557 139.91467 23.3312569C141.356446 20.3485449 143.008074 18.6379822 144.445949 18.6379822L144.460548 18.6379822C146.083758 18.6506298 147.206129 20.1169703 147.190304 22.2039398 147.179717 23.5970808 146.568547 24.3991415 146.058014 24.8262505 145.475375 25.3140234 144.699265 25.5933903 143.92884 25.5933903 142.029245 25.5789518 140.725551 24.4818547 139.962369 23.5637269L139.962369 23.5637269zM139.569299 34.825706C139.337269 35.1357406 139.014299 35.2927726 138.609639 35.2927726 138.145355 35.2891909 137.796195 35.1258911 137.559038 34.8077978 136.894041 33.9149653 137.081381 31.8178107 138.16653 28.0085263 138.295807 27.5542193 138.436786 27.0968902 138.585232 26.648963L138.711389 26.2690866 138.822166 26.6537758C140.086631 31.0495516 140.338053 33.7988982 139.569299 34.825706L139.569299 34.825706zM93.0941325 14.5751857C93.1365934 13.6258306 93.2158314 12.7013231 93.3290604 11.8276299 94.0609256 6.19496151 95.5899633 2.26121557 97.0474527 2.26121557L97.0536937 2.26121557C97.7483359 2.26647609 98.0963815 2.79420647 98.0886917 3.82929674 98.0693001 6.37236398 96.464925 10.0134238 93.3202562 14.6510714L93.0741837 15.014047 93.0941325 14.5751857zM144.093111 27.423266L144.144153 27.4236018C147.204569 27.4236018 149.358484 25.2947721 149.381776 22.2464716 149.393255 20.7377111 148.959285 19.35677 148.159883 18.3582795 147.313898 17.3019233 146.130008 16.7381528 144.735597 16.7274079L144.707401 16.727184C142.825637 16.727184 141.078277 18.1614019 139.365131 21.112215L139.228609 21.3469235 139.14079 21.0897179C138.70838 19.8250677 138.322889 18.7716216 138.092641 18.1422626 137.931825 17.7021701 137.859831 17.5048448 137.843337 17.441159 137.761424 17.1214988 137.489385 16.923502 137.133427 16.923502 136.914212 16.923502 136.681736 16.9980446 136.461519 17.1386235 136.243531 17.2778592 136.121609 17.4486581 136.077922 17.6760914L136.066778 17.7101169C134.352294 23.0803192 132.938269 25.6884153 131.741005 25.6886392 131.567038 25.687408 131.430406 25.6295423 131.328879 25.5167211 131.015381 25.168184 131.092279 24.3399327 131.199044 23.1932523 131.277279 22.3516819 131.366213 21.3976259 131.329101 20.3857043 131.258445 18.4412165 130.198929 17.2725987 128.495032 17.2595034 126.32975 17.2592795 124.926312 19.5746896 124.280037 20.9549592L124.087347 21.3670702 124.044441 20.9136585C123.883178 19.2051104 123.312352 17.165038 121.509938 17.1512711 119.407623 17.1512711 117.805922 19.6294213 116.82921 21.7085559L116.567201 22.2657228 116.592945 21.6501306C116.709518 18.8766081 116.804915 17.2399164 116.876352 16.7852736 116.947677 16.3300711 116.910232 16.0239539 116.761786 15.8492377 116.621364 15.6845947 116.356346 15.6240429 115.967288 15.6490023 115.294266 15.691758 114.949898 16.1028616 114.432232 17.482012 113.581454 19.7471673 111.416172 25.0160767 109.687535 25.0160767 109.344727 25.0136144 109.073133 24.8959803 108.874314 24.6673158 108.149135 23.8320132 108.439118 21.5762596 108.840434 18.4537522L108.870748 18.2175887C109.060429 16.7391601 108.736455 16.423865 107.937611 16.2760109 107.851352 16.2600055 107.769774 16.2519469 107.694659 16.2519469 107.055963 16.2519469 106.757399 16.866084 106.160941 18.5723936 105.099864 21.6095016 103.735544 24.8039773 102.13897 24.8039773 102.080795 24.8039773 102.022509 24.7991644 101.964557 24.7894269 101.118794 24.6453783 101.137183 23.3847575 101.160698 21.7890306 101.17318 20.9257465 101.187668 19.9474027 101.054936 19.06386 100.816553 17.4787661 99.8864254 16.4883343 98.6275326 16.4784848 96.1143162 16.478149 94.41967 19.7104557 93.6313017 21.6369234L93.4527654 22.0729865 93.3934762 21.6052484C93.2876026 20.7700577 93.1485181 19.4458629 93.0877801 17.8799084L93.0861084 17.8337949 93.11475 17.797419C97.8178782 11.8518059 99.9278833 7.56124037 99.9559677 3.88525966 99.9740219 1.53660762 98.8952256.126118048 97.0702991.111903465 95.7364032.111903465 92.5629814 1.22802805 91.4605586 11.5681858 91.2560554 13.4854756 91.1436065 15.4514532 91.1267781 17.4114987L91.1264438 17.4496654 91.1047118 17.4810046C88.9534717 20.6089964 84.3610093 25.9890482 79.8649476 25.9890482 75.8028562 25.9890482 72.5617867 22.6888025 72.5617867 16.8625024 72.5617867 9.05220462 78.0667681 4.25685348 82.2089891 4.25685348L82.2430915 4.25707734C83.1433515 4.26379289 83.9152257 4.51640953 84.4756871 4.98728158 85.0574347 5.4761737 85.3614591 6.16160761 85.3553296 6.96881684 85.3473055 8.04733434 84.9979226 8.60114344 84.6596843 9.13682056 84.572868 9.27460129 84.4863859 9.41159853 84.4071479 9.55665443 84.3272412 9.70294152 84.2543556 9.91571256 84.3605635 10.097704 84.4693347 10.2840605 84.7473922 10.401135 85.0862992 10.4038212 86.0725954 10.4038212 87.56363 8.97049875 87.580124 6.81032984 87.5972866 4.54976344 85.7010347 2.22036264 82.3179832 2.22036264 77.198716 2.22036264 70.3045615 7.86858875 70.3045615 17.0227802 70.3045615 23.4981384 74.3467041 27.9734935 79.8229325 27.9734935 83.7091623 27.9734935 87.5532655 25.1796004 90.9572689 20.5120686L91.1657842 20.2288962 91.1808294 20.5810149C91.2529349 22.2886676 91.3766398 23.6355833 91.466911 24.6186281 91.5249743 25.2505614 91.5671009 25.706995 91.5652063 25.9588282 91.5608599 26.5111823 91.6507967 26.8937448 91.8401433 27.128901 92.0294899 27.364393 92.3303938 27.4758712 92.7865418 27.4792289 93.5512836 27.4792289 93.7040759 26.955304 94.0068744 25.664687L94.0940251 25.2958914C94.470155 23.7307203 95.8598853 18.6228722 97.9503874 18.6228722 98.2917461 18.6255584 98.5547584 18.7278586 98.7418761 18.9269747 99.2037079 19.4188888 99.1532229 20.4276765 99.0947138 21.5964062 99.0581595 22.3256032 99.0203794 23.0794238 99.093265 23.8132096 99.2901899 25.7942972 100.141859 26.7631273 101.697421 26.7748796 103.294998 26.7751034 104.96156 25.0475279 105.840757 23.4418397L106.006923 23.1385206 106.071338 23.4785513C106.233826 24.3376942 106.960008 27.1587852 109.233281 27.1587852 111.293804 27.1587852 113.060556 24.9792531 114.998377 20.4955036L115.251582 19.9094598 115.236203 20.5482206C115.194745 22.2475908 115.103359 24.3226961 115.102802 25.9271532 115.102022 27.1678512 115.22673 27.6415214 115.797779 27.6415214 115.838345 27.6415214 115.88192 27.6477893 115.927056 27.6477893 116.475147 27.6477893 116.847265 27.3186153 117.032599 26.6694454 118.489977 21.5667459 119.750207 19.1904482 120.99829 19.1904482 122.220963 19.1996261 122.335641 21.4441871 122.433824 25.4105034L122.440065 25.6881915C122.469821 27.0757362 122.518969 27.6890899 123.377883 27.6959174 124.028615 27.6959174 124.190546 27.1826254 124.527224 25.9177514 124.591417 25.6759916 124.661851 25.4117346 124.743652 25.1264356 125.920855 21.024689 126.896564 19.3517333 128.111436 19.3517333 129.151226 19.359792 129.209178 20.4365186 129.228123 20.7904282 129.268578 21.54839 129.1909 22.3410489 129.115786 23.1074052 129.045909 23.8190298 128.974027 24.5546065 129.00122 25.2402642 129.064855 26.8444974 129.939371 27.734196 131.464062 27.7459482 133.442561 27.7461721 135.228928 25.4223676 136.792959 20.8394517L136.901619 20.5202392 137.025324 20.8340793C137.309177 21.5535386 137.678843 22.5287486 138.021205 23.6921059L138.034355 23.7365404 138.015409 23.7787365C136.500971 27.1564348 135.432539 30.9190461 135.417271 32.9284509 135.397099 35.5762807 136.589793 37.296693 138.456066 37.3111314L138.488274 37.3113553C139.503546 37.3113553 141.870323 36.9022663 141.915904 33.1132405 141.934516 31.5603812 141.56953 29.364508 140.83109 26.5865084L140.746502 26.268527 141.019433 26.4505184C141.961486 27.0786463 143.024456 27.4150954 144.093111 27.423266L144.093111 27.423266zM144.446005 18.7659871L144.446005 18.7628131 144.446005 18.7659871zM44.4367992 19.6470944C43.7706871 22.3394708 42.4935172 25.587447 40.1907106 25.7733559 40.1264064 25.7781687 40.0637738 25.7811907 40.0031472 25.7811907 39.0481673 25.7811907 38.5125584 25.1530628 38.4114769 23.9144913 38.284763 22.3639825 38.9504293 20.5479856 40.1066804 19.2874767 40.8430035 18.4847445 41.6732754 18.0427493 42.4442581 18.0427493L42.459972 18.0427493C43.4340091 18.0503602 44.1165037 18.835632 44.4304468 19.567739L44.4469408 19.6062415 44.4367992 19.6470944zM65.5527872 4.59508221L65.5855523 4.59441066C65.8027603 4.59441066 65.9934443 4.70387414 66.152589 4.92011488 66.9081922 5.94625108 66.9193368 9.69095426 65.6198776 13.9519714 64.8770907 16.3870302 63.8785355 18.6874422 62.7319802 20.6041724L62.5492089 20.9095061 62.502736 20.5560443C62.367775 19.5259907 62.3012418 18.4530695 62.2542116 17.5395307 61.9225486 11.0992053 63.8625988 4.68339171 65.5527872 4.59508221L65.5527872 4.59508221zM48.0164414 26.9306692C50.2415701 26.7511401 52.007096 23.7121294 52.662955 22.4137895L52.831907 22.0789074 52.8956541 22.4488223C53.2101544 24.275788 54.199571 27.344459 57.294535 27.3682992L57.320279 27.368635C58.6588556 27.368635 60.1776403 26.5465396 61.7123617 24.9911061L61.824922 24.8768298 61.9068348 25.0147224C62.9400496 26.7500208 64.3262137 27.672066 65.801423 27.5961803 67.9741722 27.4832471 69.2924656 25.9363199 69.4087037 24.8630629 69.4385712 24.5892923 69.3661314 24.3320867 69.2106644 24.1578181 69.0151883 23.9387792 68.7315584 23.9140436 68.5228203 24.1138313L68.4239678 24.2085205C67.917892 24.6966292 66.9756169 25.6050194 65.9490888 25.6585199 64.6919791 25.7208626 63.7624089 24.965587 63.1614926 23.407803L63.1364173 23.3426622 63.1786553 23.2871469C66.6353726 18.7462033 69.0615497 11.8173216 68.8220525 7.17027218 68.7116096 5.01939311 68.0887385 2.4552838 65.7500464 2.4552838 65.6927632 2.4552838 65.6345885 2.45685077 65.5755222 2.45998469 64.6796086 2.50643392 63.8647162 2.93522185 63.1536914 3.73414857 60.983617 6.1723413 59.8477604 12.1742531 60.2599988 19.0248986 60.3455892 20.4483716 60.5916618 21.7780507 60.9915296 22.9771123L61.0138188 23.044044 60.9682374 23.0977684C59.6854952 24.603283 58.4198042 25.4327655 57.4044206 25.4327655 54.960635 25.4327655 55.0432165 21.3185951 55.2363522 17.9055282 55.278033 17.1699515 55.3401083 16.7014299 55.1233461 16.4349345 54.9682134 16.2441009 54.7092131 16.1500832 54.331523 16.1470612L54.2873904 16.1468373C53.4182239 16.1468373 53.2364556 16.3262544 52.7911178 17.6221319 51.8656711 20.3151798 50.0386271 24.8330668 48.2007729 24.8330668 47.6912422 24.8291494 47.3024075 24.6538735 47.0364976 24.3131712 46.1449305 23.1701844 46.8218528 20.3199926 47.3655973 18.0292063 47.4634468 17.6172072 47.5572843 17.2218851 47.6375253 16.8561114 47.7567724 16.3129353 47.7202182 15.916382 47.5287541 15.6769726 47.3376244 15.4381228 46.9548078 15.3407473 46.4495121 15.3812645 45.6623697 15.4443907 45.1590801 15.7752435 44.916128 17.2785196L44.8674262 17.5913523 44.6843206 17.3688437C44.3408443 16.8592453 43.6702744 16.2517118 42.4264267 16.2517118 42.3172098 16.2517118 42.204538 16.255965 42.0879656 16.2657026 40.7601992 16.375278 39.2483242 17.3038148 38.1422237 18.6903523 36.8502314 20.3092478 36.2332669 22.3580505 36.4050051 24.4592344 36.4141436 24.5703768 36.4300804 24.6769302 36.4460171 24.7834836L36.4550443 24.8422447 36.4148123 24.8864554C35.641935 25.7320552 34.8545698 26.1609551 34.0744485 26.1611789 32.8702756 26.1516652 32.1793111 25.2525649 32.1793111 23.7555566 32.1793111 21.2355461 33.8797525 13.6388029 33.8797525 10.8886728 33.8797525 7.96203565 32.5810735 6.36832346 30.3261887 6.35108688L30.2921977 6.35086303C26.9998631 6.35086303 24.4330413 10.1035129 21.9775539 17.8234866 21.7525446 18.530746 21.5079209 19.3475809 21.2981797 20.0534972L20.9534776 21.2142802 21.0557849 20.0073837C21.2838032 17.3180294 21.4404961 14.7015388 21.5215173 12.230216 21.643662 8.4991678 21.1414868 6.09802253 19.9860158 4.8894472 19.3628103 4.23770297 18.5379992 3.91692348 17.4642181 3.90864097L17.4356879 3.90864097C13.406473 3.90864097 11.4762301 10.7330959 10.0708974 15.5489294 9.64673434 17.0023985 8.81022146 20.2812663 8.25221186 22.5230292L8.58287183 21.9830989C8.83095039 19.1604408 9.54888484 12.0899729 9.50174323 8.25449789 9.45125824 4.139544 8.08682615 2.29444636 5.07756411 2.27127771L5.04045263 2.27127771C3.43317994 2.27127771 2.31794087 3.07378605 1.66531371 3.74690812.618056642 4.82721643-.0350163001 6.40604247.00142650745 7.76941126.0234927946 8.59822218.530014385 9.33592546.913834046 9.33592546 1.16403008 9.33592546 1.30233443 9.00081946 1.36251522 8.80125567 2.29353422 5.71008753 3.49804145 4.20748299 5.04479902 4.20748299 5.68639303 4.21251966 6.16327002 4.40223397 6.52089989 4.78759468 7.72897339 6.08929232 7.50931353 9.60398787 7.11067156 15.9845448 6.98217445 18.0407346 6.83662611 20.3709189 6.71358984 23.0212111 6.69252657 23.475742 6.66433076 23.9153867 6.63758374 24.3325344 6.52000832 26.1736027 6.426951 27.6277433 7.12203905 27.7357518 8.02631103 27.877338 8.61507969 27.5087662 8.91598361 26.6096658 9.3627702 25.2755097 10.3646688 21.6300847 12.3032701 14.9674746 14.1633021 8.5744939 15.5686348 6.24833895 17.3667029 6.24833895 19.4438315 6.24833895 19.5987413 9.83041387 19.2178192 17.3889904 19.1370209 18.991097 19.0282497 20.8061985 18.9449997 22.7819137 18.9332978 23.059154 18.9201472 23.3282237 18.9074424 23.587444 18.8275357 25.2223449 18.7643459 26.5137454 19.2294096 27.0082338 19.3745121 27.1621318 19.5719943 27.2383533 19.8332234 27.2401441 20.7335948 27.2401441 21.0042969 26.4470376 21.4527552 25.1330281 21.5321047 24.90067 21.6163577 24.6534258 21.7100837 24.3936459 24.7956862 15.8457568 27.0769837 8.42932607 30.1390711 8.42932607 31.057831 8.42932607 31.7718649 9.17855771 31.7718649 10.6398616 31.7718649 14.0126352 30.130044 20.5305252 30.130044 23.8344643 30.130044 25.0177444 30.4691738 26.0812639 31.1103221 26.8279212 31.7681872 27.5942775 32.6886188 28.0035904 33.7719844 28.0119848L33.7958338 28.0119848C34.8202444 28.0119848 35.8878961 27.5119001 36.9693671 26.5261691L37.0706714 26.4337184 37.1522498 26.5438534C37.8642776 27.5061919 39.0133962 28.0225058 40.2540119 27.9261377 42.157062 27.7775001 43.7539702 26.0754437 44.3478654 24.4710986L44.4641035 24.1569227 44.5803415 24.4710986C45.0207757 25.6618777 45.975867 27.0972148 48.0164414 26.9306692L48.0164414 26.9306692zM97.0475419 2.387099L97.0475419 2.38568831 97.0475419 2.387099z"/>
      <path d="M55.1175397 9.78012558C54.2674304 9.78012558 53.5805894 10.4527999 53.5743484 11.2794843 53.5678846 12.1124365 54.249822 12.7951841 55.094359 12.8018997L55.1065066 12.9256897 55.1065066 12.8018997C55.9443568 12.8018997 56.630975 12.129673 56.6372159 11.3031006 56.6436798 10.4698127 55.9618538 9.78684113 55.1175397 9.78012558M108.563469 9.78012558C107.713471 9.78012558 107.026742 10.4527999 107.020501 11.2794843 107.013814 12.1124365 107.695751 12.7951841 108.540511 12.8018997L108.552436 12.9256897 108.552436 12.8018997C109.390398 12.8018997 110.077016 12.129673 110.083257 11.3031006 110.089609 10.4698127 109.408006 9.78684113 108.563469 9.78012558"/>
    </g>
  </g>
</svg>
